<mxfile host="Electron" agent="Mozilla/5.0 (Windows NT 10.0; Win64; x64) AppleWebKit/537.36 (KHTML, like Gecko) draw.io/26.2.2 Chrome/134.0.6998.178 Electron/35.1.2 Safari/537.36" version="26.2.2">
  <diagram name="Страница — 1" id="Gtv8zrZcpdK5heARzg2O">
    <mxGraphModel dx="2189" dy="1296" grid="1" gridSize="10" guides="1" tooltips="1" connect="1" arrows="1" fold="1" page="1" pageScale="1" pageWidth="827" pageHeight="1169" math="0" shadow="0">
      <root>
        <mxCell id="0" />
        <mxCell id="1" parent="0" />
        <mxCell id="-GbRYIzQK6K0IMFGVT3M-1" value="" style="shape=umlLifeline;perimeter=lifelinePerimeter;whiteSpace=wrap;html=1;container=1;dropTarget=0;collapsible=0;recursiveResize=0;outlineConnect=0;portConstraint=eastwest;newEdgeStyle={&quot;curved&quot;:0,&quot;rounded&quot;:0};participant=umlActor;" vertex="1" parent="1">
          <mxGeometry x="200" y="40" width="20" height="1290" as="geometry" />
        </mxCell>
        <mxCell id="-GbRYIzQK6K0IMFGVT3M-6" value="" style="html=1;points=[[0,0,0,0,5],[0,1,0,0,-5],[1,0,0,0,5],[1,1,0,0,-5]];perimeter=orthogonalPerimeter;outlineConnect=0;targetShapes=umlLifeline;portConstraint=eastwest;newEdgeStyle={&quot;curved&quot;:0,&quot;rounded&quot;:0};" vertex="1" parent="-GbRYIzQK6K0IMFGVT3M-1">
          <mxGeometry x="5" y="120" width="10" height="80" as="geometry" />
        </mxCell>
        <mxCell id="-GbRYIzQK6K0IMFGVT3M-2" value=":Sistema" style="shape=umlLifeline;perimeter=lifelinePerimeter;whiteSpace=wrap;html=1;container=1;dropTarget=0;collapsible=0;recursiveResize=0;outlineConnect=0;portConstraint=eastwest;newEdgeStyle={&quot;curved&quot;:0,&quot;rounded&quot;:0};" vertex="1" parent="1">
          <mxGeometry x="460" y="40" width="100" height="1290" as="geometry" />
        </mxCell>
        <mxCell id="-GbRYIzQK6K0IMFGVT3M-3" value="Cliente" style="text;html=1;align=center;verticalAlign=middle;whiteSpace=wrap;rounded=0;" vertex="1" parent="1">
          <mxGeometry x="180" y="90" width="60" height="30" as="geometry" />
        </mxCell>
        <mxCell id="-GbRYIzQK6K0IMFGVT3M-7" value="" style="html=1;points=[[0,0,0,0,5],[0,1,0,0,-5],[1,0,0,0,5],[1,1,0,0,-5]];perimeter=orthogonalPerimeter;outlineConnect=0;targetShapes=umlLifeline;portConstraint=eastwest;newEdgeStyle={&quot;curved&quot;:0,&quot;rounded&quot;:0};" vertex="1" parent="1">
          <mxGeometry x="505" y="160" width="10" height="80" as="geometry" />
        </mxCell>
        <mxCell id="-GbRYIzQK6K0IMFGVT3M-16" value="" style="html=1;points=[[0,0,0,0,5],[0,1,0,0,-5],[1,0,0,0,5],[1,1,0,0,-5]];perimeter=orthogonalPerimeter;outlineConnect=0;targetShapes=umlLifeline;portConstraint=eastwest;newEdgeStyle={&quot;curved&quot;:0,&quot;rounded&quot;:0};" vertex="1" parent="1">
          <mxGeometry x="205" y="160" width="10" height="80" as="geometry" />
        </mxCell>
        <mxCell id="-GbRYIzQK6K0IMFGVT3M-17" value="" style="html=1;points=[[0,0,0,0,5],[0,1,0,0,-5],[1,0,0,0,5],[1,1,0,0,-5]];perimeter=orthogonalPerimeter;outlineConnect=0;targetShapes=umlLifeline;portConstraint=eastwest;newEdgeStyle={&quot;curved&quot;:0,&quot;rounded&quot;:0};" vertex="1" parent="1">
          <mxGeometry x="505" y="160" width="10" height="80" as="geometry" />
        </mxCell>
        <mxCell id="-GbRYIzQK6K0IMFGVT3M-18" value="solicitarListado()" style="html=1;verticalAlign=bottom;endArrow=block;curved=0;rounded=0;" edge="1" parent="1" target="-GbRYIzQK6K0IMFGVT3M-17">
          <mxGeometry width="80" relative="1" as="geometry">
            <mxPoint x="215" y="180" as="sourcePoint" />
            <mxPoint x="510" y="179.99999999999994" as="targetPoint" />
            <Array as="points">
              <mxPoint x="215" y="180" />
            </Array>
          </mxGeometry>
        </mxCell>
        <mxCell id="-GbRYIzQK6K0IMFGVT3M-19" value="listadoCoches" style="html=1;verticalAlign=bottom;endArrow=open;dashed=1;endSize=8;curved=0;rounded=0;" edge="1" parent="1" target="-GbRYIzQK6K0IMFGVT3M-16">
          <mxGeometry relative="1" as="geometry">
            <mxPoint x="505" y="220" as="sourcePoint" />
            <mxPoint x="205" y="220" as="targetPoint" />
          </mxGeometry>
        </mxCell>
        <mxCell id="-GbRYIzQK6K0IMFGVT3M-20" value="" style="html=1;points=[[0,0,0,0,5],[0,1,0,0,-5],[1,0,0,0,5],[1,1,0,0,-5]];perimeter=orthogonalPerimeter;outlineConnect=0;targetShapes=umlLifeline;portConstraint=eastwest;newEdgeStyle={&quot;curved&quot;:0,&quot;rounded&quot;:0};" vertex="1" parent="1">
          <mxGeometry x="205" y="260" width="10" height="80" as="geometry" />
        </mxCell>
        <mxCell id="-GbRYIzQK6K0IMFGVT3M-21" value="" style="html=1;points=[[0,0,0,0,5],[0,1,0,0,-5],[1,0,0,0,5],[1,1,0,0,-5]];perimeter=orthogonalPerimeter;outlineConnect=0;targetShapes=umlLifeline;portConstraint=eastwest;newEdgeStyle={&quot;curved&quot;:0,&quot;rounded&quot;:0};" vertex="1" parent="1">
          <mxGeometry x="505" y="260" width="10" height="80" as="geometry" />
        </mxCell>
        <mxCell id="-GbRYIzQK6K0IMFGVT3M-22" value="eligirCoche(idCoche: int)" style="html=1;verticalAlign=bottom;endArrow=block;curved=0;rounded=0;" edge="1" parent="1" target="-GbRYIzQK6K0IMFGVT3M-21">
          <mxGeometry width="80" relative="1" as="geometry">
            <mxPoint x="215" y="280" as="sourcePoint" />
            <mxPoint x="510" y="279.99999999999994" as="targetPoint" />
            <Array as="points">
              <mxPoint x="215" y="280" />
            </Array>
          </mxGeometry>
        </mxCell>
        <mxCell id="-GbRYIzQK6K0IMFGVT3M-23" value="datosCoche" style="html=1;verticalAlign=bottom;endArrow=open;dashed=1;endSize=8;curved=0;rounded=0;" edge="1" parent="1" target="-GbRYIzQK6K0IMFGVT3M-20">
          <mxGeometry relative="1" as="geometry">
            <mxPoint x="505" y="320" as="sourcePoint" />
            <mxPoint x="205" y="320" as="targetPoint" />
          </mxGeometry>
        </mxCell>
        <mxCell id="-GbRYIzQK6K0IMFGVT3M-24" value="" style="html=1;points=[[0,0,0,0,5],[0,1,0,0,-5],[1,0,0,0,5],[1,1,0,0,-5]];perimeter=orthogonalPerimeter;outlineConnect=0;targetShapes=umlLifeline;portConstraint=eastwest;newEdgeStyle={&quot;curved&quot;:0,&quot;rounded&quot;:0};" vertex="1" parent="1">
          <mxGeometry x="205" y="370" width="10" height="80" as="geometry" />
        </mxCell>
        <mxCell id="-GbRYIzQK6K0IMFGVT3M-25" value="" style="html=1;points=[[0,0,0,0,5],[0,1,0,0,-5],[1,0,0,0,5],[1,1,0,0,-5]];perimeter=orthogonalPerimeter;outlineConnect=0;targetShapes=umlLifeline;portConstraint=eastwest;newEdgeStyle={&quot;curved&quot;:0,&quot;rounded&quot;:0};" vertex="1" parent="1">
          <mxGeometry x="505" y="370" width="10" height="80" as="geometry" />
        </mxCell>
        <mxCell id="-GbRYIzQK6K0IMFGVT3M-26" value="comprobarDocumentos(idCoche: int)" style="html=1;verticalAlign=bottom;endArrow=block;curved=0;rounded=0;" edge="1" parent="1" target="-GbRYIzQK6K0IMFGVT3M-25">
          <mxGeometry width="80" relative="1" as="geometry">
            <mxPoint x="215" y="390" as="sourcePoint" />
            <mxPoint x="510" y="389.99999999999994" as="targetPoint" />
            <Array as="points">
              <mxPoint x="215" y="390" />
            </Array>
          </mxGeometry>
        </mxCell>
        <mxCell id="-GbRYIzQK6K0IMFGVT3M-27" value="documentacionCorrecta" style="html=1;verticalAlign=bottom;endArrow=open;dashed=1;endSize=8;curved=0;rounded=0;" edge="1" parent="1" target="-GbRYIzQK6K0IMFGVT3M-24">
          <mxGeometry relative="1" as="geometry">
            <mxPoint x="505" y="430" as="sourcePoint" />
            <mxPoint x="205" y="430" as="targetPoint" />
          </mxGeometry>
        </mxCell>
        <mxCell id="-GbRYIzQK6K0IMFGVT3M-28" value="" style="html=1;points=[[0,0,0,0,5],[0,1,0,0,-5],[1,0,0,0,5],[1,1,0,0,-5]];perimeter=orthogonalPerimeter;outlineConnect=0;targetShapes=umlLifeline;portConstraint=eastwest;newEdgeStyle={&quot;curved&quot;:0,&quot;rounded&quot;:0};" vertex="1" parent="1">
          <mxGeometry x="205" y="470" width="10" height="80" as="geometry" />
        </mxCell>
        <mxCell id="-GbRYIzQK6K0IMFGVT3M-29" value="" style="html=1;points=[[0,0,0,0,5],[0,1,0,0,-5],[1,0,0,0,5],[1,1,0,0,-5]];perimeter=orthogonalPerimeter;outlineConnect=0;targetShapes=umlLifeline;portConstraint=eastwest;newEdgeStyle={&quot;curved&quot;:0,&quot;rounded&quot;:0};" vertex="1" parent="1">
          <mxGeometry x="505" y="470" width="10" height="80" as="geometry" />
        </mxCell>
        <mxCell id="-GbRYIzQK6K0IMFGVT3M-30" value="comprobarDefectos(idCoche: int)" style="html=1;verticalAlign=bottom;endArrow=block;curved=0;rounded=0;" edge="1" parent="1" target="-GbRYIzQK6K0IMFGVT3M-29">
          <mxGeometry width="80" relative="1" as="geometry">
            <mxPoint x="215" y="490" as="sourcePoint" />
            <mxPoint x="510" y="489.99999999999994" as="targetPoint" />
            <Array as="points">
              <mxPoint x="215" y="490" />
            </Array>
          </mxGeometry>
        </mxCell>
        <mxCell id="-GbRYIzQK6K0IMFGVT3M-31" value="defectos" style="html=1;verticalAlign=bottom;endArrow=open;dashed=1;endSize=8;curved=0;rounded=0;" edge="1" parent="1" target="-GbRYIzQK6K0IMFGVT3M-28">
          <mxGeometry relative="1" as="geometry">
            <mxPoint x="505" y="530" as="sourcePoint" />
            <mxPoint x="205" y="530" as="targetPoint" />
          </mxGeometry>
        </mxCell>
        <mxCell id="-GbRYIzQK6K0IMFGVT3M-36" value="" style="html=1;points=[[0,0,0,0,5],[0,1,0,0,-5],[1,0,0,0,5],[1,1,0,0,-5]];perimeter=orthogonalPerimeter;outlineConnect=0;targetShapes=umlLifeline;portConstraint=eastwest;newEdgeStyle={&quot;curved&quot;:0,&quot;rounded&quot;:0};" vertex="1" parent="1">
          <mxGeometry x="205" y="580" width="10" height="80" as="geometry" />
        </mxCell>
        <mxCell id="-GbRYIzQK6K0IMFGVT3M-37" value="" style="html=1;points=[[0,0,0,0,5],[0,1,0,0,-5],[1,0,0,0,5],[1,1,0,0,-5]];perimeter=orthogonalPerimeter;outlineConnect=0;targetShapes=umlLifeline;portConstraint=eastwest;newEdgeStyle={&quot;curved&quot;:0,&quot;rounded&quot;:0};" vertex="1" parent="1">
          <mxGeometry x="505" y="580" width="10" height="80" as="geometry" />
        </mxCell>
        <mxCell id="-GbRYIzQK6K0IMFGVT3M-38" value="pedirPrecio(idCoche: int)" style="html=1;verticalAlign=bottom;endArrow=block;curved=0;rounded=0;" edge="1" parent="1" target="-GbRYIzQK6K0IMFGVT3M-37">
          <mxGeometry width="80" relative="1" as="geometry">
            <mxPoint x="215" y="600" as="sourcePoint" />
            <mxPoint x="510" y="600" as="targetPoint" />
            <Array as="points">
              <mxPoint x="215" y="600" />
            </Array>
          </mxGeometry>
        </mxCell>
        <mxCell id="-GbRYIzQK6K0IMFGVT3M-39" value="precio" style="html=1;verticalAlign=bottom;endArrow=open;dashed=1;endSize=8;curved=0;rounded=0;" edge="1" parent="1" target="-GbRYIzQK6K0IMFGVT3M-36">
          <mxGeometry relative="1" as="geometry">
            <mxPoint x="505" y="640" as="sourcePoint" />
            <mxPoint x="205" y="640" as="targetPoint" />
          </mxGeometry>
        </mxCell>
        <mxCell id="-GbRYIzQK6K0IMFGVT3M-40" value="" style="html=1;points=[[0,0,0,0,5],[0,1,0,0,-5],[1,0,0,0,5],[1,1,0,0,-5]];perimeter=orthogonalPerimeter;outlineConnect=0;targetShapes=umlLifeline;portConstraint=eastwest;newEdgeStyle={&quot;curved&quot;:0,&quot;rounded&quot;:0};" vertex="1" parent="1">
          <mxGeometry x="205" y="700" width="10" height="80" as="geometry" />
        </mxCell>
        <mxCell id="-GbRYIzQK6K0IMFGVT3M-41" value="" style="html=1;points=[[0,0,0,0,5],[0,1,0,0,-5],[1,0,0,0,5],[1,1,0,0,-5]];perimeter=orthogonalPerimeter;outlineConnect=0;targetShapes=umlLifeline;portConstraint=eastwest;newEdgeStyle={&quot;curved&quot;:0,&quot;rounded&quot;:0};" vertex="1" parent="1">
          <mxGeometry x="505" y="700" width="10" height="80" as="geometry" />
        </mxCell>
        <mxCell id="-GbRYIzQK6K0IMFGVT3M-42" value="evaluarPrecio(idCoche: int)" style="html=1;verticalAlign=bottom;endArrow=block;curved=0;rounded=0;" edge="1" parent="1" target="-GbRYIzQK6K0IMFGVT3M-41">
          <mxGeometry width="80" relative="1" as="geometry">
            <mxPoint x="215" y="720" as="sourcePoint" />
            <mxPoint x="510" y="720" as="targetPoint" />
            <Array as="points">
              <mxPoint x="215" y="720" />
            </Array>
          </mxGeometry>
        </mxCell>
        <mxCell id="-GbRYIzQK6K0IMFGVT3M-43" value="precioAlto" style="html=1;verticalAlign=bottom;endArrow=open;dashed=1;endSize=8;curved=0;rounded=0;" edge="1" parent="1" target="-GbRYIzQK6K0IMFGVT3M-40">
          <mxGeometry relative="1" as="geometry">
            <mxPoint x="505" y="760" as="sourcePoint" />
            <mxPoint x="205" y="760" as="targetPoint" />
          </mxGeometry>
        </mxCell>
        <mxCell id="-GbRYIzQK6K0IMFGVT3M-44" value="" style="html=1;points=[[0,0,0,0,5],[0,1,0,0,-5],[1,0,0,0,5],[1,1,0,0,-5]];perimeter=orthogonalPerimeter;outlineConnect=0;targetShapes=umlLifeline;portConstraint=eastwest;newEdgeStyle={&quot;curved&quot;:0,&quot;rounded&quot;:0};" vertex="1" parent="1">
          <mxGeometry x="205" y="820" width="10" height="80" as="geometry" />
        </mxCell>
        <mxCell id="-GbRYIzQK6K0IMFGVT3M-45" value="" style="html=1;points=[[0,0,0,0,5],[0,1,0,0,-5],[1,0,0,0,5],[1,1,0,0,-5]];perimeter=orthogonalPerimeter;outlineConnect=0;targetShapes=umlLifeline;portConstraint=eastwest;newEdgeStyle={&quot;curved&quot;:0,&quot;rounded&quot;:0};" vertex="1" parent="1">
          <mxGeometry x="505" y="820" width="10" height="80" as="geometry" />
        </mxCell>
        <mxCell id="-GbRYIzQK6K0IMFGVT3M-46" value="negociar(idCoche: int)" style="html=1;verticalAlign=bottom;endArrow=block;curved=0;rounded=0;" edge="1" parent="1" target="-GbRYIzQK6K0IMFGVT3M-45">
          <mxGeometry width="80" relative="1" as="geometry">
            <mxPoint x="215" y="840" as="sourcePoint" />
            <mxPoint x="510" y="840" as="targetPoint" />
            <Array as="points">
              <mxPoint x="215" y="840" />
            </Array>
          </mxGeometry>
        </mxCell>
        <mxCell id="-GbRYIzQK6K0IMFGVT3M-47" value="estanDeAcuerdo" style="html=1;verticalAlign=bottom;endArrow=open;dashed=1;endSize=8;curved=0;rounded=0;" edge="1" parent="1" target="-GbRYIzQK6K0IMFGVT3M-44">
          <mxGeometry relative="1" as="geometry">
            <mxPoint x="505" y="880" as="sourcePoint" />
            <mxPoint x="205" y="880" as="targetPoint" />
          </mxGeometry>
        </mxCell>
        <mxCell id="-GbRYIzQK6K0IMFGVT3M-49" value="" style="html=1;points=[[0,0,0,0,5],[0,1,0,0,-5],[1,0,0,0,5],[1,1,0,0,-5]];perimeter=orthogonalPerimeter;outlineConnect=0;targetShapes=umlLifeline;portConstraint=eastwest;newEdgeStyle={&quot;curved&quot;:0,&quot;rounded&quot;:0};" vertex="1" parent="1">
          <mxGeometry x="205" y="930" width="10" height="80" as="geometry" />
        </mxCell>
        <mxCell id="-GbRYIzQK6K0IMFGVT3M-50" value="" style="html=1;points=[[0,0,0,0,5],[0,1,0,0,-5],[1,0,0,0,5],[1,1,0,0,-5]];perimeter=orthogonalPerimeter;outlineConnect=0;targetShapes=umlLifeline;portConstraint=eastwest;newEdgeStyle={&quot;curved&quot;:0,&quot;rounded&quot;:0};" vertex="1" parent="1">
          <mxGeometry x="505" y="930" width="10" height="80" as="geometry" />
        </mxCell>
        <mxCell id="-GbRYIzQK6K0IMFGVT3M-51" value="maneraDePagar(idCoche: int)" style="html=1;verticalAlign=bottom;endArrow=block;curved=0;rounded=0;" edge="1" parent="1" target="-GbRYIzQK6K0IMFGVT3M-50">
          <mxGeometry width="80" relative="1" as="geometry">
            <mxPoint x="215" y="950" as="sourcePoint" />
            <mxPoint x="510" y="950" as="targetPoint" />
            <Array as="points">
              <mxPoint x="215" y="950" />
            </Array>
          </mxGeometry>
        </mxCell>
        <mxCell id="-GbRYIzQK6K0IMFGVT3M-52" value="efectivo" style="html=1;verticalAlign=bottom;endArrow=open;dashed=1;endSize=8;curved=0;rounded=0;" edge="1" parent="1" target="-GbRYIzQK6K0IMFGVT3M-49">
          <mxGeometry relative="1" as="geometry">
            <mxPoint x="505" y="990" as="sourcePoint" />
            <mxPoint x="205" y="990" as="targetPoint" />
          </mxGeometry>
        </mxCell>
        <mxCell id="-GbRYIzQK6K0IMFGVT3M-53" value="" style="html=1;points=[[0,0,0,0,5],[0,1,0,0,-5],[1,0,0,0,5],[1,1,0,0,-5]];perimeter=orthogonalPerimeter;outlineConnect=0;targetShapes=umlLifeline;portConstraint=eastwest;newEdgeStyle={&quot;curved&quot;:0,&quot;rounded&quot;:0};" vertex="1" parent="1">
          <mxGeometry x="205" y="1050" width="10" height="80" as="geometry" />
        </mxCell>
        <mxCell id="-GbRYIzQK6K0IMFGVT3M-54" value="" style="html=1;points=[[0,0,0,0,5],[0,1,0,0,-5],[1,0,0,0,5],[1,1,0,0,-5]];perimeter=orthogonalPerimeter;outlineConnect=0;targetShapes=umlLifeline;portConstraint=eastwest;newEdgeStyle={&quot;curved&quot;:0,&quot;rounded&quot;:0};" vertex="1" parent="1">
          <mxGeometry x="505" y="1050" width="10" height="80" as="geometry" />
        </mxCell>
        <mxCell id="-GbRYIzQK6K0IMFGVT3M-55" value="descuento(idCoche: int)" style="html=1;verticalAlign=bottom;endArrow=block;curved=0;rounded=0;" edge="1" parent="1" target="-GbRYIzQK6K0IMFGVT3M-54">
          <mxGeometry width="80" relative="1" as="geometry">
            <mxPoint x="215" y="1070" as="sourcePoint" />
            <mxPoint x="510" y="1070" as="targetPoint" />
            <Array as="points">
              <mxPoint x="215" y="1070" />
            </Array>
          </mxGeometry>
        </mxCell>
        <mxCell id="-GbRYIzQK6K0IMFGVT3M-56" value="precio-10%" style="html=1;verticalAlign=bottom;endArrow=open;dashed=1;endSize=8;curved=0;rounded=0;" edge="1" parent="1" target="-GbRYIzQK6K0IMFGVT3M-53">
          <mxGeometry relative="1" as="geometry">
            <mxPoint x="505" y="1110" as="sourcePoint" />
            <mxPoint x="205" y="1110" as="targetPoint" />
          </mxGeometry>
        </mxCell>
        <mxCell id="-GbRYIzQK6K0IMFGVT3M-57" value="" style="html=1;points=[[0,0,0,0,5],[0,1,0,0,-5],[1,0,0,0,5],[1,1,0,0,-5]];perimeter=orthogonalPerimeter;outlineConnect=0;targetShapes=umlLifeline;portConstraint=eastwest;newEdgeStyle={&quot;curved&quot;:0,&quot;rounded&quot;:0};" vertex="1" parent="1">
          <mxGeometry x="205" y="1180" width="10" height="80" as="geometry" />
        </mxCell>
        <mxCell id="-GbRYIzQK6K0IMFGVT3M-58" value="" style="html=1;points=[[0,0,0,0,5],[0,1,0,0,-5],[1,0,0,0,5],[1,1,0,0,-5]];perimeter=orthogonalPerimeter;outlineConnect=0;targetShapes=umlLifeline;portConstraint=eastwest;newEdgeStyle={&quot;curved&quot;:0,&quot;rounded&quot;:0};" vertex="1" parent="1">
          <mxGeometry x="505" y="1180" width="10" height="80" as="geometry" />
        </mxCell>
        <mxCell id="-GbRYIzQK6K0IMFGVT3M-59" value="pagar(idCoche: int, dinero: double)" style="html=1;verticalAlign=bottom;endArrow=block;curved=0;rounded=0;" edge="1" parent="1" target="-GbRYIzQK6K0IMFGVT3M-58">
          <mxGeometry width="80" relative="1" as="geometry">
            <mxPoint x="215" y="1200" as="sourcePoint" />
            <mxPoint x="510" y="1200" as="targetPoint" />
            <Array as="points">
              <mxPoint x="215" y="1200" />
            </Array>
          </mxGeometry>
        </mxCell>
        <mxCell id="-GbRYIzQK6K0IMFGVT3M-60" value="recibo" style="html=1;verticalAlign=bottom;endArrow=open;dashed=1;endSize=8;curved=0;rounded=0;" edge="1" parent="1" target="-GbRYIzQK6K0IMFGVT3M-57">
          <mxGeometry relative="1" as="geometry">
            <mxPoint x="505" y="1240" as="sourcePoint" />
            <mxPoint x="205" y="1240" as="targetPoint" />
          </mxGeometry>
        </mxCell>
        <mxCell id="-GbRYIzQK6K0IMFGVT3M-61" value="opt" style="shape=umlFrame;whiteSpace=wrap;html=1;pointerEvents=0;" vertex="1" parent="1">
          <mxGeometry x="110" y="1030" width="440" height="120" as="geometry" />
        </mxCell>
        <mxCell id="-GbRYIzQK6K0IMFGVT3M-64" value="&lt;span style=&quot;font-size: 11px; text-wrap-mode: nowrap; background-color: rgb(255, 255, 255);&quot;&gt;[efectivo=true]&lt;/span&gt;" style="text;html=1;align=center;verticalAlign=middle;whiteSpace=wrap;rounded=0;" vertex="1" parent="1">
          <mxGeometry x="120" y="1060" width="60" height="30" as="geometry" />
        </mxCell>
        <mxCell id="-GbRYIzQK6K0IMFGVT3M-65" value="loop[1, estanDeAcuerdo]" style="shape=umlFrame;whiteSpace=wrap;html=1;pointerEvents=0;width=120;height=30;" vertex="1" parent="1">
          <mxGeometry x="60" y="810" width="500" height="100" as="geometry" />
        </mxCell>
        <mxCell id="-GbRYIzQK6K0IMFGVT3M-66" value="opt" style="shape=umlFrame;whiteSpace=wrap;html=1;pointerEvents=0;" vertex="1" parent="1">
          <mxGeometry x="-50" y="790" width="660" height="140" as="geometry" />
        </mxCell>
        <mxCell id="-GbRYIzQK6K0IMFGVT3M-68" value="&lt;span style=&quot;font-size: 11px; background-color: rgb(255, 255, 255);&quot;&gt;[precioAlto=true]&lt;/span&gt;" style="text;html=1;align=center;verticalAlign=middle;resizable=0;points=[];autosize=1;strokeColor=none;fillColor=none;" vertex="1" parent="1">
          <mxGeometry x="-50" y="820" width="100" height="30" as="geometry" />
        </mxCell>
        <mxCell id="-GbRYIzQK6K0IMFGVT3M-69" value="[&lt;span style=&quot;font-size: 11px; background-color: rgb(255, 255, 255);&quot;&gt;estanDeAcuerdo=false]&lt;/span&gt;" style="text;html=1;align=center;verticalAlign=middle;resizable=0;points=[];autosize=1;strokeColor=none;fillColor=none;" vertex="1" parent="1">
          <mxGeometry x="60" y="845" width="140" height="30" as="geometry" />
        </mxCell>
        <mxCell id="-GbRYIzQK6K0IMFGVT3M-70" value="opt" style="shape=umlFrame;whiteSpace=wrap;html=1;pointerEvents=0;" vertex="1" parent="1">
          <mxGeometry x="-60" y="560" width="720" height="720" as="geometry" />
        </mxCell>
        <mxCell id="-GbRYIzQK6K0IMFGVT3M-71" value="[defectos=false]" style="text;html=1;align=center;verticalAlign=middle;resizable=0;points=[];autosize=1;strokeColor=none;fillColor=none;" vertex="1" parent="1">
          <mxGeometry x="-50" y="605" width="110" height="30" as="geometry" />
        </mxCell>
        <mxCell id="-GbRYIzQK6K0IMFGVT3M-72" value="opt" style="shape=umlFrame;whiteSpace=wrap;html=1;pointerEvents=0;" vertex="1" parent="1">
          <mxGeometry x="-180" y="460" width="850" height="830" as="geometry" />
        </mxCell>
        <mxCell id="-GbRYIzQK6K0IMFGVT3M-73" value="[documentacionCorrecta=true]" style="text;html=1;align=center;verticalAlign=middle;resizable=0;points=[];autosize=1;strokeColor=none;fillColor=none;" vertex="1" parent="1">
          <mxGeometry x="-180" y="495" width="190" height="30" as="geometry" />
        </mxCell>
      </root>
    </mxGraphModel>
  </diagram>
</mxfile>
